<?xml version="1.0" standalone="no"?><!DOCTYPE svg PUBLIC "-//W3C//DTD SVG 1.1//EN" "http://www.w3.org/Graphics/SVG/1.1/DTD/svg11.dtd"><svg t="1678780261558" class="icon" viewBox="0 0 1024 1024" version="1.1" xmlns="http://www.w3.org/2000/svg" p-id="13204" xmlns:xlink="http://www.w3.org/1999/xlink" width="200" height="200"><path d="M217.6 1004.8a25.6 25.6 0 1 1 0-51.2h589.9904a25.6 25.6 0 1 1 0 51.2H217.6z" fill="#1989FA" p-id="13205"></path><path d="M629.8368 806.4h51.2v187.7632H332.8V806.4h51.2v136.5632h245.8368z" fill="#1989FA" p-id="13206"></path><path d="M512 448m-409.6 0a409.6 409.6 0 1 0 819.2 0 409.6 409.6 0 1 0-819.2 0Z" fill="#BADBFD" p-id="13207"></path><path d="M512 448m-307.2 0a307.2 307.2 0 1 0 614.4 0 307.2 307.2 0 1 0-614.4 0Z" fill="#FFFFFF" p-id="13208"></path><path d="M512 473.6m-204.8 0a204.8 204.8 0 1 0 409.6 0 204.8 204.8 0 1 0-409.6 0Z" fill="#1989FA" p-id="13209"></path><path d="M454.4 403.2m-70.4 0a70.4 70.4 0 1 0 140.8 0 70.4 70.4 0 1 0-140.8 0Z" fill="#FFFFFF" p-id="13210"></path><path d="M518.4 198.4m-32 0a32 32 0 1 0 64 0 32 32 0 1 0-64 0Z" fill="#1989FA" p-id="13211"></path></svg>