<?xml version="1.0" standalone="no"?><!DOCTYPE svg PUBLIC "-//W3C//DTD SVG 1.1//EN" "http://www.w3.org/Graphics/SVG/1.1/DTD/svg11.dtd"><svg t="1678780115557" class="icon" viewBox="0 0 1024 1024" version="1.1" xmlns="http://www.w3.org/2000/svg" p-id="6342" xmlns:xlink="http://www.w3.org/1999/xlink" width="200" height="200"><path d="M955.7 773c-17.9 3.8-36.9-3.8-46.5-20.3-9.6-16.5-6.5-36.5 5.8-49.8-16.7-15.9-37.2-28-60-34.7-5.6 17.2-21.8 29.7-41.1 29.6-19.3-0.1-35.4-12.7-40.8-30-22.9 6.5-43.5 18.4-60.3 34.1 12.2 13.4 15.1 33.5 5.4 49.9s-28.8 23.9-46.7 19.9c-2.8 11-4.4 22.5-4.5 34.3s1.5 23.3 4.2 34.3c17.9-3.8 36.9 3.8 46.5 20.3s6.5 36.5-5.8 49.8c16.7 15.9 37.2 28 60 34.7 5.6-17.2 21.8-29.7 41.1-29.6 19.3 0.1 35.4 12.7 40.8 30 22.9-6.5 43.5-18.4 60.3-34.1-12.2-13.4-15.1-33.5-5.4-49.9s28.8-23.9 46.7-19.9c2.8-11 4.4-22.5 4.5-34.3s-1.5-23.3-4.2-34.3z m-142.4 89.3c-31.1-0.1-56.2-25.1-56.1-55.9 0.1-30.7 25.5-55.5 56.6-55.4 31.1 0.1 56.2 25.1 56.1 55.9-0.2 30.8-25.6 55.5-56.6 55.4z m-276.1-231c-5.7-6.1-11-12.8-15.9-19.8-18.7-8.1-37.8-15.3-56.5-21.5-4.4-1.4-31.3-10.7-14.1-66.3h-0.2c2.8-2.9 5.5-5.9 8.2-8.8 3.5-2.3 6.6-5 9.9-7.5-4.3-7.2-8-15.1-10.6-23.5-10.6-34.5-2.9-68.8 17.7-90.5 5-60 41.4-111.3 92.8-137.9-1.3-0.7-2.5-1.4-4-1.9-2.6-0.8-5.3-1-8-0.9-0.3-15.2-1.2-24.5-1.2-24.5 0-90.2-74.7-164-166-164h-49.9c-91.3 0-166 73.8-166 164 0 0-0.9 9.3-1.2 24.5-2.7-0.1-5.4 0.1-8 0.9-18.3 5.5-26.3 31.8-18 58.8 6.1 19.7 19.2 34.1 32.9 38.4 10.7 63.3 36.8 134.3 98.2 168.7 2.3 2.5 4.5 5 6.9 7.4 17.6 45.5-15.3 61.7-21.9 64.1-91 32.5-200.7 91.8-200.7 150.3v21.9c0 79.7 158.8 97.8 303.6 97.8 19.9 0 40-0.4 59.9-1.2-18.3-17.1-30.1-39.4-30.1-68.8v-15.7c0-68.1 77.4-115.9 142.2-144z" fill="#efb336" p-id="6343"></path><path d="M674.9 662.4c15.4-14.4 33.1-26 52.2-35 0.6-2.6 1-5 1.9-8h-0.2c2.2-2.3 4.3-4.6 6.4-6.9 39.8-25.8 57.3-73.9 64.6-117.1 9.8-3.1 19.3-13.4 23.6-27.4 6-19.3 0.2-38.2-12.9-42.1-1.9-0.6-3.8-0.1-5.7 0-0.2-11.1-0.8-18.1-0.8-18.1 0-64.6-53.5-117.5-119-117.5h-35.8c-65.4 0-119 52.9-119 117.5 0 0-0.6 7-0.8 18.1-1.9-0.1-3.9-0.5-5.7 0-13.1 3.9-18.8 22.8-12.9 42.1 4.3 14.1 13.8 24.3 23.6 27.4 7.6 44.8 26.2 94.6 69.1 119.7 2 2.2 4 4.5 6.2 6.6 12.6 32.6-11 44.2-15.7 45.9-65.2 23.3-143.8 65.8-143.8 107.7V791c0 48.5 82 65.1 170.2 69.1-0.9-2.4-2.1-4.5-2.7-6.9-3.9-15.9-5.8-31.8-5.7-47.4 0.1-15.5 2.1-31.4 6.1-47.3 5.3-20.9 22.2-36 42.2-40.1a53.98 53.98 0 0 1 14.6-56z" fill="#efb336" p-id="6344"></path></svg>